HIERARCHY
ROOT Hips
{
	OFFSET 0.000000 0.000000 0.000000
	CHANNELS 6 Xposition Yposition Zposition Zrotation Yrotation Xrotation 
	JOINT LeftUpLeg_virtual
	{
		OFFSET 0.000000 0.000000 0.000000
		CHANNELS 3 Zrotation Yrotation Xrotation
		JOINT LeftUpLeg
		{
			OFFSET 8.479694 -4.795517 -0.379053
			CHANNELS 3 Zrotation Yrotation Xrotation
			JOINT LeftLeg
			{
				OFFSET 0.485052 -32.551468 0.112863
				CHANNELS 3 Zrotation Yrotation Xrotation
				JOINT LeftFoot
				{
					OFFSET 0.438033 -32.635670 -3.012641
					CHANNELS 3 Zrotation Yrotation Xrotation
					JOINT LeftToeBase
					{
						OFFSET 0.970169 -13.225353 11.864223
						CHANNELS 3 Zrotation Yrotation Xrotation
						End Site
						{
							OFFSET 0.000000 0.000000 0.000000
						}
					}
				}
			}
		}
	}
	JOINT RightUpLeg_virtual
	{
		OFFSET 0.000000 0.000000 0.000000
		CHANNELS 3 Zrotation Yrotation Xrotation
		JOINT RightUpLeg
		{
			OFFSET -8.479694 -4.795517 -0.379053
			CHANNELS 3 Zrotation Yrotation Xrotation
			JOINT RightLeg
			{
				OFFSET -0.484100 -32.551483 0.112903
				CHANNELS 3 Zrotation Yrotation Xrotation
				JOINT RightFoot
				{
					OFFSET -0.438985 -32.635651 -3.012681
					CHANNELS 3 Zrotation Yrotation Xrotation
					JOINT RightToeBase
					{
						OFFSET -0.970169 -13.225354 11.864223
						CHANNELS 3 Zrotation Yrotation Xrotation
						End Site
						{
							OFFSET 0.000000 0.000000 0.000000
						}
					}
				}
			}
		}
	}
	JOINT Spine_virtual
	{
		OFFSET 0.000000 0.000000 0.000000
		CHANNELS 3 Zrotation Yrotation Xrotation
		JOINT Spine
		{
			OFFSET 0.000000 7.722015 1.166203
			CHANNELS 3 Zrotation Yrotation Xrotation
			JOINT Spine1
			{
				OFFSET 0.000000 12.024086 0.248766
				CHANNELS 3 Zrotation Yrotation Xrotation
				JOINT Spine2
				{
					OFFSET -0.000000 11.503036 -0.491240
					CHANNELS 3 Zrotation Yrotation Xrotation
					JOINT Neck_virtual
					{
						OFFSET 0.000000 0.000000 0.000000
						CHANNELS 3 Zrotation Yrotation Xrotation
						JOINT Neck
						{
							OFFSET 0.000000 18.430687 -3.123054
							CHANNELS 3 Zrotation Yrotation Xrotation
							JOINT Head
							{
								OFFSET -0.000000 9.051071 1.034021
								CHANNELS 3 Zrotation Yrotation Xrotation
								End Site
								{
									OFFSET 0.000000 0.000000 0.000000
								}
							}
						}
					}
					JOINT LeftShoulder_virtual
					{
						OFFSET 0.000000 0.000000 0.000000
						CHANNELS 3 Zrotation Yrotation Xrotation
						JOINT LeftShoulder
						{
							OFFSET 6.197824 13.665230 -4.064723
							CHANNELS 3 Zrotation Yrotation Xrotation
							JOINT LeftArm
							{
								OFFSET 7.778132 -0.187073 -1.709282
								CHANNELS 3 Zrotation Yrotation Xrotation
								JOINT LeftForeArm
								{
									OFFSET 21.954697 0.000000 -2.041093
									CHANNELS 3 Zrotation Yrotation Xrotation
									JOINT LeftHand
									{
										OFFSET 22.992908 0.000000 -0.870901
										CHANNELS 3 Zrotation Yrotation Xrotation
										End Site
										{
											OFFSET 0.000000 0.000000 0.000000
										}
									}
								}
							}
						}
					}
					JOINT RightShoulder_virtual
					{
						OFFSET 0.000000 0.000000 0.000000
						CHANNELS 3 Zrotation Yrotation Xrotation
						JOINT RightShoulder
						{
							OFFSET -6.197824 13.665230 -4.064723
							CHANNELS 3 Zrotation Yrotation Xrotation
							JOINT RightArm
							{
								OFFSET -7.778132 -0.187073 -1.709282
								CHANNELS 3 Zrotation Yrotation Xrotation
								JOINT RightForeArm
								{
									OFFSET -21.954697 0.000000 -2.041093
									CHANNELS 3 Zrotation Yrotation Xrotation
									JOINT RightHand
									{
										OFFSET -22.992908 0.000000 -0.870901
										CHANNELS 3 Zrotation Yrotation Xrotation
										End Site
										{
											OFFSET 0.000000 0.000000 0.000000
										}
									}
								}
							}
						}
					}
				}
			}
		}
	}
}
MOTION
Frames: 11
Frame Time: 0.033333
-100.167870 81.490356 111.749413 179.789485 43.118803 179.811615 -1.354182 -3.301565 9.669723 2.692073 -1.332783 -29.506530 7.760545 2.440144 28.781768 -8.476509 -12.090042 -2.319070 0.000000 0.000000 0.000000 2.826743 -4.480406 8.406763 -0.473016 5.904934 -24.932113 -0.736351 4.356054 29.069435 4.937133 8.939646 -2.641849 0.000000 0.000000 0.000000 5.096008 0.583931 -0.901168 2.310093 -0.110054 -6.344097 -1.945112 -1.654981 10.551173 0.053651 0.211240 -0.033633 -2.353636 -0.261545 11.663714 -6.784182 -0.546733 -1.599693 0.000000 0.000000 0.000000 -0.205632 0.338069 8.291333 -5.251602 1.964324 4.643388 -66.503544 -8.069069 14.056101 6.087292 -30.715972 15.911102 0.000000 0.000000 0.000000 -5.110053 2.191018 7.535664 28.117478 0.729851 5.360575 53.850707 5.409579 0.052594 -4.204851 22.545338 -1.132972 0.000000 0.000000 0.000000 
-100.115105 81.498711 111.250122 179.494544 43.574677 179.608403 -1.421853 -3.535169 9.932897 2.692787 -1.109849 -29.314079 7.298407 2.287824 28.504671 -9.077548 -12.488124 -2.359801 0.000000 0.000000 0.000000 2.863389 -5.089532 8.308900 -0.318388 5.345969 -24.901463 -0.720289 3.841038 29.523496 4.486777 8.467283 -2.360465 0.000000 0.000000 0.000000 4.955983 0.529836 -1.059321 2.233034 -0.052677 -6.533052 -1.929899 -1.638485 10.498609 0.017213 0.194449 -0.015522 -2.294714 -0.047982 11.532726 -6.842334 -0.487288 -1.604220 0.000000 0.000000 0.000000 -0.111124 0.437788 8.182289 -5.183648 1.981915 4.675405 -66.345213 -8.080582 13.839208 6.097842 -30.880856 15.840819 0.000000 0.000000 0.000000 -5.080795 2.346288 7.424554 28.144273 0.645230 5.354461 53.828277 5.563091 -0.147643 -4.100568 22.769998 -1.004570 0.000000 0.000000 0.000000 
-100.098167 81.534828 110.618729 179.562641 44.075156 179.522165 -1.844044 -3.138924 10.012118 2.937180 -0.900816 -29.245357 7.111647 2.606487 29.345440 -8.871109 -12.133122 -2.843789 0.000000 0.000000 0.000000 2.759145 -4.702896 8.368347 -0.485168 5.608092 -24.422508 -0.810821 4.110148 29.588800 4.409714 8.450659 -2.799067 0.000000 0.000000 0.000000 4.953587 0.778888 -1.166356 2.231758 -0.019150 -6.671030 -1.849141 -1.636985 10.442631 0.049186 0.271109 -0.073659 -2.200232 -0.147836 11.406596 -6.702097 -0.579476 -1.577658 0.000000 0.000000 0.000000 -0.079514 0.368911 8.091851 -5.187700 1.840076 4.610857 -66.132105 -8.303851 13.584281 6.042224 -31.012921 15.949472 0.000000 0.000000 0.000000 -4.986475 2.156664 7.338767 28.177129 0.602954 5.376404 53.816508 5.639510 -0.260875 -4.165161 22.999315 -1.093682 0.000000 0.000000 0.000000 
-100.142731 81.567917 109.982224 179.739187 44.064832 179.879343 -1.521797 -3.222981 9.818818 2.154400 0.059208 -28.990840 7.005703 2.591356 29.356262 -9.233061 -12.319030 -2.945228 0.000000 0.000000 0.000000 2.687012 -4.266113 8.443074 -0.623506 5.627086 -24.277364 -0.886510 4.161846 29.415330 4.372207 8.398795 -2.799123 0.000000 0.000000 0.000000 4.923445 0.720771 -1.408753 2.283360 -0.084009 -6.982774 -1.717119 -1.731405 10.275742 0.036473 0.235040 -0.041520 -2.096103 -0.440174 11.361915 -6.490678 -0.554200 -1.702586 0.000000 0.000000 0.000000 0.032299 0.224299 8.098284 -5.222174 1.731737 4.454598 -65.938305 -8.589729 13.293938 5.938757 -31.197101 15.763959 0.000000 0.000000 0.000000 -4.935487 2.010987 7.306627 28.259687 0.511183 5.412569 53.903266 5.772706 -0.324472 -4.248179 23.175904 -1.184735 0.000000 0.000000 0.000000 
-100.229904 81.592644 109.411163 179.692715 44.292120 179.831012 -1.541146 -3.087201 9.871109 1.591593 0.798200 -28.870117 7.137497 2.826314 29.526471 -9.597920 -12.560417 -3.118112 0.000000 0.000000 0.000000 2.548873 -3.817375 8.625259 -0.814312 5.749167 -24.051178 -0.949544 4.328965 29.321439 4.380441 8.408297 -3.122018 0.000000 0.000000 0.000000 4.774283 0.955003 -1.377069 2.247868 -0.162922 -7.145878 -1.628801 -1.884351 10.176231 0.011477 0.142446 -0.015264 -1.965579 -0.385813 11.202478 -6.206362 -0.751373 -1.746746 0.000000 0.000000 0.000000 0.148335 0.087979 7.991746 -5.254454 1.815965 4.206874 -65.850612 -8.813207 13.217335 5.772834 -31.344448 15.809513 0.000000 0.000000 0.000000 -4.831792 1.950128 7.178747 28.438246 0.358278 5.428263 53.923592 5.689692 -0.229244 -4.253180 23.235993 -1.291435 0.000000 0.000000 0.000000 
-100.394753 81.612198 108.933685 179.742124 44.577619 179.834400 -1.641720 -3.039773 10.008711 1.223447 1.195198 -28.823204 7.331817 3.120426 29.659700 -9.707544 -12.575635 -3.379394 0.000000 0.000000 0.000000 2.439661 -3.633156 8.839546 -1.025242 5.983611 -23.926342 -0.990408 4.572095 29.115918 4.512586 8.478292 -3.431180 0.000000 0.000000 0.000000 4.714591 1.104735 -1.245147 2.212077 -0.180502 -7.269058 -1.552690 -1.986766 10.064258 0.102958 0.056820 0.006698 -1.938693 -0.526891 11.027027 -5.794192 -0.878175 -1.813267 0.000000 0.000000 0.000000 0.158672 -0.010589 7.933371 -5.427125 1.743715 4.021233 -65.720722 -8.894569 13.225767 5.719337 -31.588805 15.695449 0.000000 0.000000 0.000000 -4.851739 1.712769 7.030370 28.522559 0.269826 5.454151 53.900233 5.499696 0.078775 -4.322436 23.060546 -1.121225 0.000000 0.000000 0.000000 
-100.624001 81.618256 108.465141 179.917264 44.870067 179.921936 -1.700970 -3.140494 10.203365 0.869431 1.595048 -28.876674 7.557355 3.339580 29.837220 -9.666475 -12.500669 -3.675761 0.000000 0.000000 0.000000 2.354837 -3.586636 9.132427 -1.246083 6.385493 -23.923894 -1.120864 4.884842 28.816998 4.800695 8.608353 -3.467024 0.000000 0.000000 0.000000 4.758473 1.004859 -1.091955 2.171084 -0.185070 -7.326904 -1.470236 -2.084801 9.944138 0.001747 0.005428 0.001203 -1.777890 -0.535009 10.900672 -5.298300 -1.147076 -1.910662 0.000000 0.000000 0.000000 0.291593 -0.045777 7.812305 -5.538544 1.857675 3.794208 -65.848283 -8.766439 13.241493 5.669535 -31.891458 15.557907 0.000000 0.000000 0.000000 -4.669994 1.704182 6.966704 28.696398 0.199991 5.445443 53.657567 5.241262 0.402462 -4.289308 22.694931 -0.924264 0.000000 0.000000 0.000000 
-100.902168 81.607605 107.989090 179.986536 45.409977 179.969583 -1.825909 -3.179940 10.423534 0.418170 1.937277 -29.047189 7.811652 3.559874 30.044213 -9.585044 -12.430837 -3.930681 0.000000 0.000000 0.000000 2.153948 -3.479854 9.475738 -1.455725 6.919649 -24.004097 -1.182985 5.234289 28.505750 5.090398 8.680018 -3.593974 0.000000 0.000000 0.000000 4.762543 1.050213 -0.964045 2.101596 -0.138370 -7.312408 -1.385594 -2.131628 9.858751 0.073097 -0.001014 -0.027002 -1.744193 -0.651286 10.831738 -4.767111 -1.473284 -2.021219 0.000000 0.000000 0.000000 0.297553 -0.096149 7.803309 -5.618555 1.994035 3.551534 -66.173776 -8.481024 13.228161 5.665996 -32.048108 15.302364 0.000000 0.000000 0.000000 -4.656587 1.653899 6.893757 28.831017 0.083783 5.440026 53.391350 4.940978 0.784329 -4.389457 22.232932 -0.921039 0.000000 0.000000 0.000000 
-101.256470 81.599457 107.454353 -179.909806 46.185534 -179.932222 -1.896571 -3.051495 10.637663 -0.106969 2.432261 -29.263758 8.124542 3.768125 30.279632 -9.432945 -12.316014 -4.213142 0.000000 0.000000 0.000000 2.053176 -3.251476 9.788593 -1.856046 7.734608 -24.218358 -1.455007 5.524949 28.280607 5.392635 8.611461 -3.520702 0.000000 0.000000 0.000000 4.788900 1.127733 -0.884705 2.054673 -0.084467 -7.221717 -1.255534 -2.160503 9.762124 -0.021939 0.011991 0.003935 -1.628535 -0.830534 10.750386 -4.186927 -1.639090 -2.180994 0.000000 0.000000 0.000000 0.404922 -0.141236 7.709874 -5.631133 2.128104 3.314992 -66.623277 -8.113810 13.269826 5.768530 -31.984850 14.922468 0.000000 0.000000 0.000000 -4.562087 1.578367 6.806742 28.921866 -0.076074 5.355536 53.002910 4.683424 1.018807 -4.434741 21.689617 -0.658355 0.000000 0.000000 0.000000 
-101.653015 81.573677 106.914719 -179.868469 46.895051 -179.912223 -2.027719 -2.976303 10.909550 -0.662654 2.738606 -29.523875 8.520425 4.085911 30.542769 -9.267959 -12.185836 -4.530943 0.000000 0.000000 0.000000 1.844023 -3.280841 10.091878 -2.253608 8.695155 -24.516611 -1.586221 6.061793 28.249843 5.660786 8.482342 -3.505402 0.000000 0.000000 0.000000 4.727393 1.213472 -0.765869 1.980239 -0.100332 -7.143250 -1.130383 -2.231210 9.699272 -0.092563 -0.024223 0.013953 -1.483268 -0.702876 10.716937 -3.563661 -1.983228 -2.344526 0.000000 0.000000 0.000000 0.538698 -0.152185 7.650641 -5.607730 2.223633 3.072949 -67.091739 -7.740030 13.483288 5.904635 -31.556553 14.648908 0.000000 0.000000 0.000000 -4.439321 1.549079 6.748805 29.001195 -0.284006 5.296471 52.632594 4.425828 1.076693 -4.498045 21.112275 -0.490706 0.000000 0.000000 0.000000 
-102.112015 81.532669 106.390877 -179.888441 47.932307 -179.932823 -2.165664 -2.897124 11.107244 -1.334127 3.162464 -29.671032 8.935380 4.511522 30.691684 -9.120864 -12.004387 -4.897323 0.000000 0.000000 0.000000 1.619469 -3.168343 10.385763 -2.716739 9.505156 -24.970600 -1.680430 6.526101 28.281016 6.048438 8.408122 -3.399221 0.000000 0.000000 0.000000 4.640112 1.220142 -0.665320 1.887934 -0.127913 -6.921520 -1.075198 -2.271126 9.657848 0.003482 -0.065541 0.024956 -1.405635 -0.797231 10.707102 -2.999334 -2.250577 -2.561589 0.000000 0.000000 0.000000 0.566455 -0.198749 7.663832 -5.608909 2.198736 2.899096 -67.464736 -7.411130 13.846108 6.059172 -30.771983 14.439305 0.000000 0.000000 0.000000 -4.373526 1.514151 6.709832 28.960596 -0.466298 5.144957 52.327671 4.144359 1.142472 -4.701995 20.562928 -0.454683 0.000000 0.000000 0.000000 
